# AST/ASF file generated using VICON BodyLanguage
# -----------------------------------------------
:version 1.10
:name VICON
:units
  mass 1.0
  length 0.45
  angle deg
:documentation
   .ast/.asf automatically generated from VICON data using
   VICON BodyBuilder and BodyLanguage model FoxedUp or BRILLIANT.MOD
:root
   order TX TY TZ RX RY RZ
   axis XYZ
   position 0 0 0  
   orientation 0 0 0 
:bonedata
  begin
     id 1 
     name lhipjoint
     direction 0.734343 -0.627749 0.258209 
     length 2.5437 
     axis 0 0 0  XYZ
  end
  begin
     id 2 
     name lfemur
     direction 0.34202 -0.939693 0  
     length 6.7391  
     axis 0 0 20  XYZ
    dof rx ry rz
    limits (-160.0 20.0)
           (-70.0 70.0)
           (-60.0 70.0)
  end
  begin
     id 3 
     name ltibia
     direction 0.34202 -0.939693 0   
     length 7.21536   
     axis 0 0 20   XYZ
    dof rx
    limits (-10.0 170.0)
  end
  begin
     id 4 
     name lfoot
     direction 0.0489572 -0.134509 0.989702   
     length 1.61313   
     axis -90 7.62852e-016 20   XYZ
    dof rx rz
    limits (-45.0 90.0)
           (-70.0 20.0)
  end
  begin
     id 5 
     name ltoes
     direction 1.53451e-011 -4.21692e-011 1   
     length 0.823104   
     axis -90 7.62852e-016 20   XYZ
    dof rx
    limits (-90.0 20.0)
  end
  begin
     id 6 
     name rhipjoint
     direction -0.746398 -0.615468 0.253157   
     length 2.59446  
     axis 0 0 0  XYZ 
  end
  begin
     id 7 
     name rfemur
     direction -0.34202 -0.939693 0   
     length 6.7075   
     axis 0 0 -20   XYZ
    dof rx ry rz
    limits (-160.0 20.0)
           (-70.0 70.0)
           (-70.0 60.0)
  end
  begin
     id 8 
     name rtibia
     direction -0.34202 -0.939693 0   
     length 7.27262   
     axis 0 0 -20   XYZ
    dof rx
    limits (-10.0 170.0)
 end
 begin
     id 9 
     name rfoot
     direction -0.0455203 -0.125066 0.991104   
     length 1.91095  
     axis -90 -7.62852e-016 -20   XYZ
    dof rx rz
    limits (-45.0 90.0)
           (-20.0 70.0)
  end
  begin
     id 10 
     name rtoes
     direction -1.53601e-011 -4.21913e-011 1   
     length 0.969037   
     axis -90 -7.62852e-016 -20   XYZ
    dof rx
    limits (-90.0 20.0)
  end
  begin
     id 11 
     name lowerback
     direction 0.0181546 0.999122 -0.0377542   
     length 1.99916   
     axis 0 0 0   XYZ
    dof rx ry rz
    limits (-20.0 45.0)
           (-30.0 30.0)
           (-30.0 30.0)
  end
  begin
     id 12 
     name upperback
     direction 0.0203486 0.99589 0.0882534   
     length 1.951   
     axis 0 0 0   XYZ
    dof rx ry rz
    limits (-20.0 45.0)
           (-30.0 30.0)
           (-30.0 30.0)
  end
  begin
     id 13 
     name thorax
     direction 0.0131685 0.994241 0.106355   
     length 1.97461   
     axis 0 0 0   XYZ
    dof rx ry rz
    limits (-20.0 45.0)
           (-30.0 30.0)
           (-30.0 30.0)
  end
  begin
     id 14 
     name lowerneck
     direction -0.0281395 0.999325 0.023617   
     length 1.7959   
     axis 0 0 0   XYZ
    dof rx ry rz
    limits (-20.0 45.0)
           (-30.0 30.0)
           (-30.0 30.0)
  end
  begin
     id 15 
     name upperneck
     direction 0.0288721 0.991984 -0.123019   
     length 1.79917   
     axis 0 0 0   XYZ
    dof rx ry rz
    limits (-20.0 45.0)
           (-30.0 30.0)
           (-30.0 30.0)
  end
  begin
     id 16
     name head
     direction 0.0133797 0.998944 -0.0439492  
     length 1.80902  
     axis 0 0 0   XYZ
    dof rx ry rz
    limits (-20.0 45.0)
           (-30.0 30.0)
           (-30.0 30.0)
  end
  begin
     id 17 
     name lclavicle
     direction 0.919195 0.377107 0.113449  
     length 3.17815  
     axis 0 0 0   XYZ
    dof ry rz
    limits (-20.0 10.0)
           (0.0 20.0)
  end
  begin
     id 18 
     name lhumerus
     direction 1 -4.48959e-011 2.13129e-027   
     length 4.84137   
     axis 180 -30 -90   XYZ
    dof rx ry rz
    limits (-60.0 90.0)
           (-90.0 90.0)
           (-90.0 90.0)
  end
  begin
     id 19
     name lradius
     direction 1 -4.48957e-011 -6.30627e-028   
     length 3.2452   
     axis 180 -30 -90   XYZ
    dof rx
    limits (-10.0 170.0)
  end
  begin
     id 20
     name lwrist
     direction 1 -4.4901e-011 9.13299e-027   
     length 1.6226   
     axis -6.84618e-015 90 90   XYZ
    dof ry
    limits (-180.0 0.0)
 end
  begin
     id 21 
     name lhand
     direction 1 -4.48816e-011 1.82293e-026   
     length 0.521221   
     axis -1.16502e-014 90 90   XYZ
    dof rx rz
    limits (-90.0 90.0)
           (-45.0 45.0)
  end
  begin
     id 22 
     name lfingers
     direction 1 -4.49108e-011 3.65687e-026   
     length 0.420221   
     axis -2.33008e-014 90 90   XYZ
    dof rx
    limits (0.0 90.0)
  end
  begin
     id 23
     name lthumb
     direction 0.707107 -6.34943e-011 0.707107   
     length 0.603356   
     axis -90 45 5.69224e-014   XYZ
    dof rx rz
    limits (-45.0 45.0)
           (-45.0 45.0)
  end
  begin
     id 24 
     name rclavicle
     direction -0.90847 0.38596 0.160368   
     length 3.12973  
     axis 0 0 0   XYZ 
    dof ry rz
    limits (-10.0 20.0)
           (-20.0 0.0)
  end
  begin
     id 25 
     name rhumerus
     direction -1 -4.48974e-011 4.47268e-028  
     length 4.72284   
     axis 180 30 90   XYZ
    dof rx ry rz
    limits (-90.0 60.0)
           (-90.0 90.0)
           (-90.0 90.0)
  end
  begin
     id 26 
     name rradius
     direction -1 -4.48969e-011 3.43203e-027   
     length 3.23459   
     axis 180 30 90   XYZ
    dof rx
    limits (-10.0 170.0)
  end
  begin
     id 27 
     name rwrist
     direction -1 -4.48969e-011 9.12911e-027   
     length 1.6173   
     axis -6.84618e-015 -90 -90   XYZ
    dof ry
    limits (-180.0 0.0)
  end
  begin
     id 28
     name rhand
     direction -1 -4.49194e-011 1.83006e-026   
     length 0.307416   
     axis -1.16502e-014 -90 -90   XYZ
    dof rx rz
    limits (-90.0 90.0)
           (-45.0 45.0)
  end
  begin
     id 29
     name rfingers
     direction -1 -4.48423e-011 3.63103e-026   
     length 0.247847   
     axis -2.33008e-014 -90 -90   XYZ
    dof rx
    limits (0.0 90.0)
  end
  begin
     id 30
     name rthumb
     direction -0.707107 -6.34802e-011 0.707107   
     length 0.35586   
     axis -90 -45 -5.69224e-014   XYZ
    dof rx rz
    limits (-45.0 45.0)
           (-45.0 45.0)
  end
:hierarchy
  begin
    root lhipjoint rhipjoint lowerback
    lhipjoint lfemur
    lfemur ltibia
    ltibia lfoot
    lfoot ltoes
    rhipjoint rfemur
    rfemur rtibia
    rtibia rfoot
    rfoot rtoes
    lowerback upperback
    upperback thorax
    thorax lowerneck lclavicle rclavicle
    lowerneck upperneck
    upperneck head
    lclavicle lhumerus
    lhumerus lradius
    lradius lwrist
    lwrist lhand lthumb
    lhand lfingers
    rclavicle rhumerus
    rhumerus rradius
    rradius rwrist
    rwrist rhand rthumb
    rhand rfingers
  end

#!OML:ASF H:\Terrain\Patient Classification 1\Animal1\Tuesday\Animal1.ASF
:FULLY-SPECIFIED
:DEGREES
795
root 1.44933 15.7349 -20.8233 -340.829 -31.5867 -5.31688
lowerback 17.7775 -0.817064 8.13079
upperback -1.54565 0.993522 2.97097
thorax -11.702 0.0489603 -1.59082
lowerneck -7.29271 5.80507 -0.273827
upperneck -2.15109 7.75636 -2.04854
head 0.606526 3.85298 -0.374325
rclavicle 4.39314e-014 -2.62396e-014
rhumerus -67.6551 8.62399 -92.2127
rradius 58.6813
rwrist -60.8877
rhand -0.89561 25.4091
rfingers 7.12502
rthumb 24.7323 -3.01212
lclavicle 4.39314e-014 -2.62396e-014
lhumerus -56.9284 -1.0225 95.012
lradius 40.8406
lwrist 8.43853
lhand 27.8445 45.5831
lfingers 7.12502
lthumb 51.759 65.8308
rfemur -52.1113 4.43953 18.1327
rtibia 57.7585
rfoot 8.94242 4.56243
rtoes -30.4768
lfemur -43.3804 -8.95515 -24.8158
ltibia 75.0732
lfoot 36.3501 -4.65908
ltoes 33.586
796
root 1.32949 15.7076 -20.7856 -340.646 -30.7339 -5.19431
lowerback 17.8302 -0.693139 8.07505
upperback -1.56541 1.15561 2.98417
thorax -11.7418 0.127203 -1.58912
lowerneck -7.31348 5.56742 -0.384742
upperneck -2.64088 7.43783 -2.03044
head 0.449258 3.6986 -0.368461
rclavicle 3.71727e-014 1.11319e-014
rhumerus -67.6687 8.70827 -92.2959
rradius 58.371
rwrist -60.668
rhand -4.85622 24.8159
rfingers 7.12502
rthumb 20.9316 -4.07479
lclavicle 3.71727e-014 1.11319e-014
lhumerus -56.7584 -1.23484 95.1411
lradius 40.941
lwrist 8.42035
lhand 28.9756 45.4102
lfingers 7.12502
lthumb 52.7836 65.0386
rfemur -51.8997 3.84155 18.7116
rtibia 58.1087
rfoot 8.47806 3.24196
rtoes -30.8841
lfemur -45.2001 -8.17239 -24.9508
ltibia 76.6377
lfoot 33.8889 -5.53227
ltoes 33.1735
797
root 1.21438 15.6932 -20.744 -340.378 -30.0166 -5.37024
lowerback 17.9715 -0.52888 8.35248
upperback -1.50733 1.43595 2.90118
thorax -11.7257 0.238478 -1.91528
lowerneck -7.60383 5.28316 -0.29626
upperneck -3.00015 7.04577 -2.01057
head 0.385113 3.50275 -0.384795
rclavicle -3.18055e-015 3.97569e-014
rhumerus -67.6062 8.68121 -92.6094
rradius 58.109
rwrist -60.8198
rhand -2.59109 25.5624
rfingers 7.12502
rthumb 23.1064 -3.07204
lclavicle -3.18055e-015 3.97569e-014
lhumerus -56.4434 -1.47091 94.9962
lradius 40.9307
lwrist 7.99495
lhand 30.1658 45.1914
lfingers 7.12502
lthumb 53.856 64.1263
rfemur -51.5882 3.45189 19.5241
rtibia 58.3385
rfoot 8.11597 2.19745
rtoes -31.1164
lfemur -46.9573 -7.34684 -24.8761
ltibia 77.9296
lfoot 31.8668 -7.03829
ltoes 33.195
798
root 1.10536 15.681 -20.7035 -340.079 -29.3254 -5.6862
lowerback 18.2585 -0.396584 8.81374
upperback -1.45117 1.72897 2.79151
thorax -11.7867 0.339478 -2.37955
lowerneck -7.94155 4.97517 -0.174997
upperneck -3.33409 6.61969 -1.95291
head 0.335815 3.28904 -0.394482
rclavicle 2.18663e-014 2.14687e-014
rhumerus -67.5066 8.60476 -93.0823
rradius 57.8195
rwrist -61.0951
rhand -3.25764 25.2452
rfingers 7.12502
rthumb 22.4667 -3.46803
lclavicle 2.18663e-014 2.14687e-014
lhumerus -56.2165 -1.70751 94.8195
lradius 40.8568
lwrist 7.77518
lhand 31.1033 45.2455
lfingers 7.12502
lthumb 54.6961 63.6017
rfemur -51.2147 3.17932 20.4417
rtibia 58.458
rfoot 7.81949 1.22601
rtoes -31.5055
lfemur -48.8378 -6.36264 -24.7381
ltibia 79.0211
lfoot 29.9948 -8.47796
ltoes 31.2085
799
root 0.995612 15.6664 -20.6676 -339.796 -28.594 -5.81621
lowerback 18.5143 -0.262074 9.0147
upperback -1.41886 1.97178 2.71842
thorax -11.8642 0.433825 -2.64454
lowerneck -8.42748 4.70988 -0.0203037
upperneck -3.59582 6.24808 -2.02326
head 0.339196 3.09911 -0.442592
rclavicle -1.23246e-014 -1.51076e-014
rhumerus -67.3166 8.5338 -93.4636
rradius 57.3394
rwrist -61.054
rhand -3.2887 24.9903
rfingers 7.12502
rthumb 22.4369 -3.72649
lclavicle -1.23246e-014 -1.51076e-014
lhumerus -56.0397 -1.84569 94.6586
lradius 40.8502
lwrist 7.72743
lhand 32.3643 45.2183
lfingers 7.12502
lthumb 55.819 62.7475
rfemur -50.9049 2.86744 21.2381
rtibia 58.5316
rfoot 7.75369 0.289019
rtoes -32.5154
lfemur -50.8245 -5.3797 -24.8319
ltibia 79.9129
lfoot 27.7973 -9.77695
ltoes 28.4255
800
root 0.888186 15.6493 -20.6263 -339.533 -27.9625 -5.99862
lowerback 18.8004 -0.12357 9.19676
upperback -1.365 2.22301 2.69081
thorax -11.9334 0.535256 -2.85262
lowerneck -8.95882 4.55697 0.105189
upperneck -3.7482 6.02957 -2.17404
head 0.386714 2.98409 -0.504651
rclavicle 3.81667e-014 3.97569e-014
rhumerus -67.2236 8.66518 -93.7709
rradius 56.9878
rwrist -61.0342
rhand -2.82669 24.9476
rfingers 7.12502
rthumb 22.8803 -3.71503
lclavicle 3.81667e-014 3.97569e-014
lhumerus -55.838 -1.60551 94.3237
lradius 40.8402
lwrist 7.45766
lhand 33.8911 44.5747
lfingers 7.12502
lthumb 57.1671 61.0206
rfemur -50.5674 2.55759 22.0916
rtibia 58.6369
rfoot 7.64968 -0.490234
rtoes -33.5332
lfemur -52.7617 -4.45598 -24.9648
ltibia 80.6707
lfoot 25.9409 -10.4518
ltoes 27.4611
801
root 0.786197 15.6417 -20.5802 -339.386 -27.4152 -6.0441
lowerback 19.1167 -0.031407 9.29002
upperback -1.32327 2.3932 2.61674
thorax -12.0419 0.60071 -3.04223
lowerneck -9.08313 4.4726 0.0479088
upperneck -4.1338 5.91507 -2.15025
head 0.282511 2.92967 -0.494189
rclavicle -6.95746e-014 5.40694e-014
rhumerus -67.2831 8.99449 -94.1989
rradius 56.8428
rwrist -61.3528
rhand -2.86315 24.8767
rfingers 7.12502
rthumb 22.8453 -3.79022
lclavicle -6.95746e-014 5.40694e-014
lhumerus -55.7615 -1.10717 93.8706
lradius 40.7727
lwrist 7.20678
lhand 35.9184 44.0088
lfingers 7.12502
lthumb 58.9344 58.8611
rfemur -50.2301 2.26465 22.7393
rtibia 58.8531
rfoot 7.50552 -2.31143
rtoes -32.2759
lfemur -54.5613 -3.72288 -25.2715
ltibia 81.1011
lfoot 24.7817 -9.92838
ltoes 29.2645
802
root 0.682303 15.6404 -20.5367 -339.347 -26.8956 -5.8034
lowerback 19.4036 0.0712359 9.00993
upperback -1.2754 2.48482 2.52385
thorax -12.1456 0.654024 -3.02202
lowerneck -9.27601 4.46628 -0.0510504
upperneck -4.47714 5.91064 -2.04999
head 0.199905 2.93109 -0.448357
rclavicle -5.96354e-015 2.3059e-014
rhumerus -67.3286 9.29919 -94.5737
rradius 56.671
rwrist -61.6926
rhand -2.77567 24.8891
rfingers 7.12502
rthumb 22.9292 -3.76742
lclavicle -5.96354e-015 2.3059e-014
lhumerus -55.7272 -0.684459 93.6446
lradius 40.8253
lwrist 7.64862
lhand 36.5787 44.2208
lfingers 7.12502
lthumb 59.5037 58.5117
rfemur -50.0219 1.98377 23.112
rtibia 59.1747
rfoot 7.43256 -4.31035
rtoes -30.7806
lfemur -56.1638 -3.14291 -25.8955
ltibia 81.0114
lfoot 23.3341 -8.93258
ltoes 31.7483
803
root 0.576379 15.6305 -20.488 -339.345 -26.4403 -5.38681
lowerback 19.5052 0.233008 8.53528
upperback -1.17655 2.57756 2.39879
thorax -12.0886 0.728259 -2.92472
lowerneck -9.57857 4.44066 -0.101539
upperneck -4.83667 5.87552 -2.02871
head 0.134147 2.91512 -0.433075
rclavicle 3.26007e-014 -4.05521e-014
rhumerus -67.3313 9.39805 -94.7274
rradius 56.4591
rwrist -61.7685
rhand -2.5482 24.878
rfingers 7.12502
rthumb 23.1475 -3.75128
lclavicle 3.26007e-014 -4.05521e-014
lhumerus -55.6373 -0.480053 93.5391
lradius 40.8803
lwrist 8.29622
lhand 36.1306 44.1819
lfingers 7.12502
lthumb 59.1177 58.8563
rfemur -49.9545 1.73524 23.2937
rtibia 59.6215
rfoot 7.37794 -5.68015
rtoes -30.6433
lfemur -57.6128 -2.63675 -26.8186
ltibia 80.5515
lfoot 21.6678 -8.98751
ltoes 31.6185
804
root 0.473217 15.6155 -20.4369 -339.196 -25.8637 -5.04653
lowerback 19.5222 0.323047 8.26535
upperback -1.20093 2.62312 2.26583
thorax -12.124 0.760308 -2.93551
lowerneck -9.39569 4.28974 -0.221032
upperneck -5.40648 5.67611 -1.96019
head -0.07999 2.8229 -0.411168
rclavicle -3.49861e-014 -3.10104e-014
rhumerus -67.4325 9.48179 -94.9784
rradius 56.1519
rwrist -61.6788
rhand -1.72999 24.9412
rfingers 7.12502
rthumb 23.9323 -3.58731
lclavicle -3.49861e-014 -3.10104e-014
lhumerus -55.7436 -0.392784 93.364
lradius 40.7539
lwrist 8.78741
lhand 36.4212 43.0792
lfingers 7.12502
lthumb 59.3682 57.5061
rfemur -49.9808 1.47084 23.5114
rtibia 60.0078
rfoot 6.57891 -7.49893
rtoes -29.33
lfemur -59.1831 -2.30439 -27.6789
ltibia 79.8534
lfoot 20.1924 -9.83848
ltoes 29.6479
805
root 0.365059 15.5807 -20.3916 -338.888 -25.1547 -4.97501
lowerback 19.6486 0.327008 8.18726
upperback -1.31175 2.62883 2.22215
thorax -12.3253 0.755421 -2.94614
lowerneck -9.22446 4.17169 -0.444113
upperneck -5.73038 5.5376 -1.75458
head -0.221357 2.76224 -0.325635
rclavicle 9.54166e-015 4.53229e-014
rhumerus -67.5218 9.74658 -95.4246
rradius 55.7211
rwrist -61.6778
rhand -0.809608 25.0575
rfingers 7.12502
rthumb 24.8147 -3.35243
lclavicle 9.54166e-015 4.53229e-014
lhumerus -55.9221 0.0139415 92.9968
lradius 40.6336
lwrist 9.01572
lhand 37.2059 42.0804
lfingers 7.12502
lthumb 60.0414 55.8172
rfemur -50.0816 1.29446 24.0187
rtibia 60.3668
rfoot 5.78527 -9.36368
rtoes -27.1973
lfemur -60.9792 -2.01619 -28.1955
ltibia 79.1213
lfoot 18.3399 -10.281
ltoes 26.4104
